<?xml version="1.0" standalone="no"?>
<!DOCTYPE svg PUBLIC "-//W3C//DTD SVG 20010904//EN"
 "http://www.w3.org/TR/2001/REC-SVG-20010904/DTD/svg10.dtd">
<svg version="1.0" xmlns="http://www.w3.org/2000/svg"
 width="512.000000pt" height="512.000000pt" viewBox="0 0 512.000000 512.000000"
 preserveAspectRatio="xMidYMid meet">

<g transform="translate(0.000000,512.000000) scale(0.100000,-0.100000)"
fill="#000000" stroke="none">
<path d="M1200 2544 c-271 -99 -543 -401 -709 -787 -52 -123 -66 -195 -65
-347 0 -160 12 -204 76 -299 62 -89 202 -206 351 -290 31 -18 61 -40 66 -50 6
-9 21 -64 36 -121 68 -268 179 -524 260 -599 61 -56 86 -55 145 7 84 87 181
315 250 587 l36 140 95 60 c98 61 251 182 303 239 15 17 40 56 55 86 25 53 26
61 26 235 0 177 -1 181 -32 273 -86 245 -213 446 -406 640 -95 97 -188 165
-273 203 -48 21 -180 35 -214 23z m430 -912 c132 -27 253 -59 350 -92 l75 -25
6 -45 c11 -81 -6 -233 -32 -286 -49 -98 -253 -266 -412 -339 -121 -55 -217
-77 -342 -78 -128 -1 -192 14 -330 78 -103 48 -263 164 -348 254 -84 88 -99
129 -105 281 -5 147 -7 144 103 177 39 12 93 28 120 36 41 13 166 38 295 61
14 2 135 3 270 2 202 -3 263 -7 350 -24z"/>
<path d="M1035 1574 c-90 -10 -251 -46 -294 -67 l-46 -22 0 -95 c1 -77 5 -107
25 -158 109 -277 414 -440 682 -363 244 70 418 270 436 503 7 95 1 111 -55
136 -99 46 -229 64 -478 67 -126 2 -248 1 -270 -1z"/>
</g>
</svg>
